<mxfile host="Electron" modified="2024-02-10T11:28:30.826Z" agent="Mozilla/5.0 (Windows NT 10.0; Win64; x64) AppleWebKit/537.36 (KHTML, like Gecko) draw.io/23.0.2 Chrome/120.0.6099.109 Electron/28.1.0 Safari/537.36" etag="gDER4lImsQsGo1hejdbD" version="23.0.2" type="device">
  <diagram name="Page-1" id="2YBvvXClWsGukQMizWep">
    <mxGraphModel dx="1953" dy="643" grid="1" gridSize="10" guides="1" tooltips="1" connect="1" arrows="1" fold="1" page="1" pageScale="1" pageWidth="850" pageHeight="1100" math="0" shadow="0">
      <root>
        <mxCell id="0" />
        <mxCell id="1" parent="0" />
        <mxCell id="T1V7MtbhpMLcvmod6pS4-56" value="&lt;font style=&quot;font-size: 11px;&quot;&gt;IF: Harvest B can help&lt;/font&gt;" style="shape=umlFrame;whiteSpace=wrap;html=1;pointerEvents=0;recursiveResize=0;container=1;collapsible=0;width=130;dashed=1;dashPattern=8 8;height=30;" parent="1" vertex="1">
          <mxGeometry x="-50" y="563" width="630" height="207" as="geometry" />
        </mxCell>
        <mxCell id="hJEKC8NUOF8t_96aRR02-13" value="&lt;font style=&quot;font-size: 11px;&quot;&gt;IF: Harvest B cannot help&lt;/font&gt;" style="shape=umlFrame;whiteSpace=wrap;html=1;pointerEvents=0;recursiveResize=0;container=1;collapsible=0;width=180;dashed=1;dashPattern=8 8;height=17;" vertex="1" parent="T1V7MtbhpMLcvmod6pS4-56">
          <mxGeometry y="220" width="630" height="50" as="geometry" />
        </mxCell>
        <mxCell id="aM9ryv3xv72pqoxQDRHE-1" value="Agent - Harvest_A" style="shape=umlLifeline;perimeter=lifelinePerimeter;whiteSpace=wrap;html=1;container=0;dropTarget=0;collapsible=0;recursiveResize=0;outlineConnect=0;portConstraint=eastwest;newEdgeStyle={&quot;edgeStyle&quot;:&quot;elbowEdgeStyle&quot;,&quot;elbow&quot;:&quot;vertical&quot;,&quot;curved&quot;:0,&quot;rounded&quot;:0};fillColor=#647687;strokeColor=#314354;fontColor=#ffffff;" parent="1" vertex="1">
          <mxGeometry x="40" y="30" width="100" height="230" as="geometry" />
        </mxCell>
        <mxCell id="aM9ryv3xv72pqoxQDRHE-3" value="start" style="html=1;verticalAlign=bottom;startArrow=oval;endArrow=block;startSize=8;edgeStyle=elbowEdgeStyle;elbow=vertical;curved=0;rounded=0;" parent="aM9ryv3xv72pqoxQDRHE-1" edge="1">
          <mxGeometry relative="1" as="geometry">
            <mxPoint x="-20" y="61" as="sourcePoint" />
            <mxPoint x="49.5" y="61" as="targetPoint" />
          </mxGeometry>
        </mxCell>
        <mxCell id="T1V7MtbhpMLcvmod6pS4-16" value="" style="html=1;points=[[0,0,0,0,5],[0,1,0,0,-5],[1,0,0,0,5],[1,1,0,0,-5]];perimeter=orthogonalPerimeter;outlineConnect=0;targetShapes=umlLifeline;portConstraint=eastwest;newEdgeStyle={&quot;curved&quot;:0,&quot;rounded&quot;:0};" parent="aM9ryv3xv72pqoxQDRHE-1" vertex="1">
          <mxGeometry x="45" y="130" width="10" height="90" as="geometry" />
        </mxCell>
        <mxCell id="aM9ryv3xv72pqoxQDRHE-5" value="Agent - Harvest_B" style="shape=umlLifeline;perimeter=lifelinePerimeter;whiteSpace=wrap;html=1;container=0;dropTarget=0;collapsible=0;recursiveResize=0;outlineConnect=0;portConstraint=eastwest;newEdgeStyle={&quot;edgeStyle&quot;:&quot;elbowEdgeStyle&quot;,&quot;elbow&quot;:&quot;vertical&quot;,&quot;curved&quot;:0,&quot;rounded&quot;:0};fillColor=#647687;strokeColor=#314354;fontColor=#ffffff;" parent="1" vertex="1">
          <mxGeometry x="620" y="70" width="100" height="190" as="geometry" />
        </mxCell>
        <mxCell id="T1V7MtbhpMLcvmod6pS4-18" value="" style="html=1;points=[[0,0,0,0,5],[0,1,0,0,-5],[1,0,0,0,5],[1,1,0,0,-5]];perimeter=orthogonalPerimeter;outlineConnect=0;targetShapes=umlLifeline;portConstraint=eastwest;newEdgeStyle={&quot;curved&quot;:0,&quot;rounded&quot;:0};" parent="aM9ryv3xv72pqoxQDRHE-5" vertex="1">
          <mxGeometry x="45" y="120" width="10" height="60" as="geometry" />
        </mxCell>
        <mxCell id="aM9ryv3xv72pqoxQDRHE-7" value="Connected to server" style="html=1;verticalAlign=bottom;endArrow=block;edgeStyle=elbowEdgeStyle;elbow=vertical;curved=0;rounded=0;fillColor=#60a917;strokeColor=#2D7600;" parent="1" edge="1">
          <mxGeometry relative="1" as="geometry">
            <mxPoint x="89.5" y="103" as="sourcePoint" />
            <Array as="points">
              <mxPoint x="180" y="103" />
            </Array>
            <mxPoint x="359.5" y="103" as="targetPoint" />
          </mxGeometry>
        </mxCell>
        <mxCell id="T1V7MtbhpMLcvmod6pS4-15" value="Text" style="edgeLabel;html=1;align=center;verticalAlign=middle;resizable=0;points=[];" parent="aM9ryv3xv72pqoxQDRHE-7" vertex="1" connectable="0">
          <mxGeometry x="-0.0556" y="-8" relative="1" as="geometry">
            <mxPoint x="1" as="offset" />
          </mxGeometry>
        </mxCell>
        <mxCell id="T1V7MtbhpMLcvmod6pS4-6" value="start" style="html=1;verticalAlign=bottom;startArrow=oval;startFill=1;endArrow=block;startSize=8;curved=0;rounded=0;" parent="1" edge="1">
          <mxGeometry width="60" relative="1" as="geometry">
            <mxPoint x="770" y="127" as="sourcePoint" />
            <mxPoint x="669.5" y="127" as="targetPoint" />
          </mxGeometry>
        </mxCell>
        <mxCell id="T1V7MtbhpMLcvmod6pS4-7" value="Game chat" style="shape=umlLifeline;perimeter=lifelinePerimeter;whiteSpace=wrap;html=1;container=0;dropTarget=0;collapsible=0;recursiveResize=0;outlineConnect=0;portConstraint=eastwest;newEdgeStyle={&quot;edgeStyle&quot;:&quot;elbowEdgeStyle&quot;,&quot;elbow&quot;:&quot;vertical&quot;,&quot;curved&quot;:0,&quot;rounded&quot;:0};fillColor=#647687;strokeColor=#314354;fontColor=#ffffff;" parent="1" vertex="1">
          <mxGeometry x="310" y="30" width="100" height="230" as="geometry" />
        </mxCell>
        <mxCell id="T1V7MtbhpMLcvmod6pS4-11" value="shout: SINCRO_0" style="html=1;verticalAlign=bottom;endArrow=block;edgeStyle=elbowEdgeStyle;elbow=vertical;curved=0;rounded=0;fillColor=#60a917;strokeColor=#2D7600;" parent="1" source="aM9ryv3xv72pqoxQDRHE-5" edge="1">
          <mxGeometry relative="1" as="geometry">
            <mxPoint x="680" y="154" as="sourcePoint" />
            <Array as="points">
              <mxPoint x="461" y="154" />
            </Array>
            <mxPoint x="359.5" y="154" as="targetPoint" />
          </mxGeometry>
        </mxCell>
        <mxCell id="T1V7MtbhpMLcvmod6pS4-12" value="Connected to server" style="html=1;verticalAlign=bottom;endArrow=block;edgeStyle=elbowEdgeStyle;elbow=vertical;curved=0;rounded=0;fillColor=#60a917;strokeColor=#2D7600;" parent="1" edge="1">
          <mxGeometry relative="1" as="geometry">
            <mxPoint x="669.5" y="135" as="sourcePoint" />
            <Array as="points">
              <mxPoint x="460.5" y="135" />
            </Array>
            <mxPoint x="359.5" y="135" as="targetPoint" />
          </mxGeometry>
        </mxCell>
        <mxCell id="T1V7MtbhpMLcvmod6pS4-13" value="shout: SINCRO_0" style="html=1;verticalAlign=bottom;endArrow=block;edgeStyle=elbowEdgeStyle;elbow=vertical;curved=0;rounded=0;fillColor=#60a917;strokeColor=#2D7600;" parent="1" edge="1">
          <mxGeometry relative="1" as="geometry">
            <mxPoint x="89.5" y="122" as="sourcePoint" />
            <Array as="points">
              <mxPoint x="190" y="122" />
            </Array>
            <mxPoint x="360" y="122" as="targetPoint" />
          </mxGeometry>
        </mxCell>
        <mxCell id="T1V7MtbhpMLcvmod6pS4-14" value="shout: SINCRO_0" style="html=1;verticalAlign=bottom;endArrow=block;edgeStyle=elbowEdgeStyle;elbow=vertical;curved=0;rounded=0;entryX=1;entryY=0;entryDx=0;entryDy=5;entryPerimeter=0;fillColor=#60a917;strokeColor=#2D7600;" parent="1" target="T1V7MtbhpMLcvmod6pS4-16" edge="1">
          <mxGeometry relative="1" as="geometry">
            <mxPoint x="361" y="164" as="sourcePoint" />
            <Array as="points" />
            <mxPoint x="150" y="190" as="targetPoint" />
          </mxGeometry>
        </mxCell>
        <mxCell id="T1V7MtbhpMLcvmod6pS4-19" value="ask: SINCRO_1" style="html=1;verticalAlign=bottom;endArrow=block;edgeStyle=elbowEdgeStyle;elbow=vertical;curved=0;rounded=0;entryX=0;entryY=0;entryDx=0;entryDy=5;entryPerimeter=0;fillColor=#60a917;strokeColor=#2D7600;" parent="1" source="T1V7MtbhpMLcvmod6pS4-16" target="T1V7MtbhpMLcvmod6pS4-18" edge="1">
          <mxGeometry relative="1" as="geometry">
            <mxPoint x="371" y="219.5" as="sourcePoint" />
            <Array as="points" />
            <mxPoint x="105" y="220.5" as="targetPoint" />
          </mxGeometry>
        </mxCell>
        <mxCell id="T1V7MtbhpMLcvmod6pS4-20" value="reply: SINCRO_2" style="html=1;verticalAlign=bottom;endArrow=open;dashed=1;endSize=8;curved=0;rounded=0;fillColor=#60a917;strokeColor=#2D7600;" parent="1" source="T1V7MtbhpMLcvmod6pS4-18" target="T1V7MtbhpMLcvmod6pS4-16" edge="1">
          <mxGeometry relative="1" as="geometry">
            <mxPoint x="460" y="430" as="sourcePoint" />
            <mxPoint x="380" y="430" as="targetPoint" />
          </mxGeometry>
        </mxCell>
        <mxCell id="T1V7MtbhpMLcvmod6pS4-21" value="say: SET_MASTER" style="html=1;verticalAlign=bottom;endArrow=block;edgeStyle=elbowEdgeStyle;elbow=vertical;curved=0;rounded=0;entryX=0;entryY=1;entryDx=0;entryDy=-5;entryPerimeter=0;fillColor=#60a917;strokeColor=#2D7600;" parent="1" source="T1V7MtbhpMLcvmod6pS4-16" target="T1V7MtbhpMLcvmod6pS4-18" edge="1">
          <mxGeometry relative="1" as="geometry">
            <mxPoint x="100" y="280" as="sourcePoint" />
            <Array as="points" />
            <mxPoint x="685.5" y="280" as="targetPoint" />
          </mxGeometry>
        </mxCell>
        <mxCell id="T1V7MtbhpMLcvmod6pS4-40" value="Agent - Harvest_A" style="shape=umlLifeline;perimeter=lifelinePerimeter;whiteSpace=wrap;html=1;container=0;dropTarget=0;collapsible=0;recursiveResize=0;outlineConnect=0;portConstraint=eastwest;newEdgeStyle={&quot;edgeStyle&quot;:&quot;elbowEdgeStyle&quot;,&quot;elbow&quot;:&quot;vertical&quot;,&quot;curved&quot;:0,&quot;rounded&quot;:0};fillColor=#647687;strokeColor=#314354;fontColor=#ffffff;" parent="1" vertex="1">
          <mxGeometry x="50" y="480" width="100" height="410" as="geometry" />
        </mxCell>
        <mxCell id="T1V7MtbhpMLcvmod6pS4-42" value="" style="html=1;points=[[0,0,0,0,5],[0,1,0,0,-5],[1,0,0,0,5],[1,1,0,0,-5]];perimeter=orthogonalPerimeter;outlineConnect=0;targetShapes=umlLifeline;portConstraint=eastwest;newEdgeStyle={&quot;curved&quot;:0,&quot;rounded&quot;:0};" parent="T1V7MtbhpMLcvmod6pS4-40" vertex="1">
          <mxGeometry x="45" y="60" width="10" height="220" as="geometry" />
        </mxCell>
        <mxCell id="T1V7MtbhpMLcvmod6pS4-73" value="" style="html=1;points=[[0,0,0,0,5],[0,1,0,0,-5],[1,0,0,0,5],[1,1,0,0,-5]];perimeter=orthogonalPerimeter;outlineConnect=0;targetShapes=umlLifeline;portConstraint=eastwest;newEdgeStyle={&quot;curved&quot;:0,&quot;rounded&quot;:0};" parent="T1V7MtbhpMLcvmod6pS4-40" vertex="1">
          <mxGeometry x="50.039999999999964" y="145" width="10" height="40" as="geometry" />
        </mxCell>
        <mxCell id="T1V7MtbhpMLcvmod6pS4-74" value="&lt;font style=&quot;font-size: 9px;&quot;&gt;Until teammate is ready&lt;/font&gt;" style="html=1;align=left;spacingLeft=2;endArrow=block;rounded=0;edgeStyle=orthogonalEdgeStyle;curved=0;rounded=0;" parent="T1V7MtbhpMLcvmod6pS4-40" edge="1">
          <mxGeometry x="-0.0492" y="-75" relative="1" as="geometry">
            <mxPoint x="50.039999999999964" y="149" as="sourcePoint" />
            <Array as="points">
              <mxPoint x="15.039999999999964" y="149" />
              <mxPoint x="15.039999999999964" y="179" />
            </Array>
            <mxPoint x="50" y="180" as="targetPoint" />
            <mxPoint as="offset" />
          </mxGeometry>
        </mxCell>
        <mxCell id="T1V7MtbhpMLcvmod6pS4-76" value="" style="html=1;points=[[0,0,0,0,5],[0,1,0,0,-5],[1,0,0,0,5],[1,1,0,0,-5]];perimeter=orthogonalPerimeter;outlineConnect=0;targetShapes=umlLifeline;portConstraint=eastwest;newEdgeStyle={&quot;curved&quot;:0,&quot;rounded&quot;:0};" parent="T1V7MtbhpMLcvmod6pS4-40" vertex="1">
          <mxGeometry x="50.039999999999964" y="197" width="10" height="40" as="geometry" />
        </mxCell>
        <mxCell id="T1V7MtbhpMLcvmod6pS4-77" value="&lt;font style=&quot;font-size: 9px;&quot;&gt;Leave parcels &amp;amp; &lt;br&gt;move back&lt;/font&gt;" style="html=1;align=left;spacingLeft=2;endArrow=block;rounded=0;edgeStyle=orthogonalEdgeStyle;curved=0;rounded=0;" parent="T1V7MtbhpMLcvmod6pS4-40" edge="1">
          <mxGeometry x="-0.0293" y="-75" relative="1" as="geometry">
            <mxPoint x="50.039999999999964" y="201" as="sourcePoint" />
            <Array as="points">
              <mxPoint x="15.039999999999964" y="201" />
              <mxPoint x="15.039999999999964" y="231" />
            </Array>
            <mxPoint x="50" y="232" as="targetPoint" />
            <mxPoint as="offset" />
          </mxGeometry>
        </mxCell>
        <mxCell id="T1V7MtbhpMLcvmod6pS4-89" value="" style="html=1;points=[[0,0,0,0,5],[0,1,0,0,-5],[1,0,0,0,5],[1,1,0,0,-5]];perimeter=orthogonalPerimeter;outlineConnect=0;targetShapes=umlLifeline;portConstraint=eastwest;newEdgeStyle={&quot;curved&quot;:0,&quot;rounded&quot;:0};" parent="T1V7MtbhpMLcvmod6pS4-40" vertex="1">
          <mxGeometry x="45" y="330" width="10" height="11" as="geometry" />
        </mxCell>
        <mxCell id="T1V7MtbhpMLcvmod6pS4-93" value="" style="html=1;points=[[0,0,0,0,5],[0,1,0,0,-5],[1,0,0,0,5],[1,1,0,0,-5]];perimeter=orthogonalPerimeter;outlineConnect=0;targetShapes=umlLifeline;portConstraint=eastwest;newEdgeStyle={&quot;curved&quot;:0,&quot;rounded&quot;:0};" parent="T1V7MtbhpMLcvmod6pS4-40" vertex="1">
          <mxGeometry x="45" y="387" width="10" height="13" as="geometry" />
        </mxCell>
        <mxCell id="T1V7MtbhpMLcvmod6pS4-43" value="Agent - Harvest_B" style="shape=umlLifeline;perimeter=lifelinePerimeter;whiteSpace=wrap;html=1;container=0;dropTarget=0;collapsible=0;recursiveResize=0;outlineConnect=0;portConstraint=eastwest;newEdgeStyle={&quot;edgeStyle&quot;:&quot;elbowEdgeStyle&quot;,&quot;elbow&quot;:&quot;vertical&quot;,&quot;curved&quot;:0,&quot;rounded&quot;:0};fillColor=#647687;strokeColor=#314354;fontColor=#ffffff;" parent="1" vertex="1">
          <mxGeometry x="375" y="480" width="100" height="410" as="geometry" />
        </mxCell>
        <mxCell id="T1V7MtbhpMLcvmod6pS4-44" value="" style="html=1;points=[[0,0,0,0,5],[0,1,0,0,-5],[1,0,0,0,5],[1,1,0,0,-5]];perimeter=orthogonalPerimeter;outlineConnect=0;targetShapes=umlLifeline;portConstraint=eastwest;newEdgeStyle={&quot;curved&quot;:0,&quot;rounded&quot;:0};" parent="T1V7MtbhpMLcvmod6pS4-43" vertex="1">
          <mxGeometry x="45" y="60" width="10" height="220" as="geometry" />
        </mxCell>
        <mxCell id="T1V7MtbhpMLcvmod6pS4-81" value="" style="html=1;points=[[0,0,0,0,5],[0,1,0,0,-5],[1,0,0,0,5],[1,1,0,0,-5]];perimeter=orthogonalPerimeter;outlineConnect=0;targetShapes=umlLifeline;portConstraint=eastwest;newEdgeStyle={&quot;curved&quot;:0,&quot;rounded&quot;:0};" parent="T1V7MtbhpMLcvmod6pS4-43" vertex="1">
          <mxGeometry x="40" y="192" width="10" height="44" as="geometry" />
        </mxCell>
        <mxCell id="T1V7MtbhpMLcvmod6pS4-82" value="&lt;font style=&quot;font-size: 9px;&quot;&gt;Wait teammate &lt;br style=&quot;&quot;&gt;leave parcel&lt;/font&gt;" style="html=1;align=left;spacingLeft=2;endArrow=block;rounded=0;edgeStyle=orthogonalEdgeStyle;curved=0;rounded=0;" parent="T1V7MtbhpMLcvmod6pS4-43" edge="1">
          <mxGeometry x="0.0588" relative="1" as="geometry">
            <mxPoint x="50" y="192" as="sourcePoint" />
            <Array as="points">
              <mxPoint x="80" y="222" />
            </Array>
            <mxPoint x="55" y="222.00000000000023" as="targetPoint" />
            <mxPoint as="offset" />
          </mxGeometry>
        </mxCell>
        <mxCell id="T1V7MtbhpMLcvmod6pS4-85" value="" style="html=1;points=[[0,0,0,0,5],[0,1,0,0,-5],[1,0,0,0,5],[1,1,0,0,-5]];perimeter=orthogonalPerimeter;outlineConnect=0;targetShapes=umlLifeline;portConstraint=eastwest;newEdgeStyle={&quot;curved&quot;:0,&quot;rounded&quot;:0};" parent="T1V7MtbhpMLcvmod6pS4-43" vertex="1">
          <mxGeometry x="40" y="246" width="10" height="27" as="geometry" />
        </mxCell>
        <mxCell id="T1V7MtbhpMLcvmod6pS4-86" value="&lt;font size=&quot;1&quot;&gt;Move and pickup&lt;/font&gt;" style="html=1;align=left;spacingLeft=2;endArrow=block;rounded=0;edgeStyle=orthogonalEdgeStyle;curved=0;rounded=0;entryX=1;entryY=1;entryDx=0;entryDy=-5;entryPerimeter=0;" parent="T1V7MtbhpMLcvmod6pS4-43" edge="1" target="T1V7MtbhpMLcvmod6pS4-85">
          <mxGeometry x="0.1852" relative="1" as="geometry">
            <mxPoint x="50" y="236.0000000000001" as="sourcePoint" />
            <Array as="points">
              <mxPoint x="50" y="250" />
              <mxPoint x="85" y="250" />
              <mxPoint x="85" y="268" />
            </Array>
            <mxPoint x="50" y="254.5000000000001" as="targetPoint" />
            <mxPoint as="offset" />
          </mxGeometry>
        </mxCell>
        <mxCell id="T1V7MtbhpMLcvmod6pS4-90" value="" style="html=1;points=[[0,0,0,0,5],[0,1,0,0,-5],[1,0,0,0,5],[1,1,0,0,-5]];perimeter=orthogonalPerimeter;outlineConnect=0;targetShapes=umlLifeline;portConstraint=eastwest;newEdgeStyle={&quot;curved&quot;:0,&quot;rounded&quot;:0};" parent="T1V7MtbhpMLcvmod6pS4-43" vertex="1">
          <mxGeometry x="45" y="310" width="10" height="31" as="geometry" />
        </mxCell>
        <mxCell id="T1V7MtbhpMLcvmod6pS4-59" value="ask: IMPOSSIBLE_DELIVERY" style="html=1;verticalAlign=bottom;endArrow=block;curved=0;rounded=0;exitX=1;exitY=0;exitDx=0;exitDy=5;exitPerimeter=0;entryX=0;entryY=0;entryDx=0;entryDy=5;entryPerimeter=0;" parent="1" source="T1V7MtbhpMLcvmod6pS4-42" target="T1V7MtbhpMLcvmod6pS4-44" edge="1">
          <mxGeometry width="80" relative="1" as="geometry">
            <mxPoint x="390" y="400" as="sourcePoint" />
            <mxPoint x="470" y="400" as="targetPoint" />
          </mxGeometry>
        </mxCell>
        <mxCell id="T1V7MtbhpMLcvmod6pS4-78" value="say: PARCELS_LEFT" style="html=1;verticalAlign=bottom;endArrow=block;curved=0;rounded=0;exitX=1;exitY=1;exitDx=0;exitDy=-5;exitPerimeter=0;fillColor=#008a00;strokeColor=#005700;entryX=0;entryY=1;entryDx=0;entryDy=-5;entryPerimeter=0;" parent="1" source="T1V7MtbhpMLcvmod6pS4-76" target="T1V7MtbhpMLcvmod6pS4-81" edge="1">
          <mxGeometry width="80" relative="1" as="geometry">
            <mxPoint x="200" y="731" as="sourcePoint" />
            <mxPoint x="390" y="648" as="targetPoint" />
          </mxGeometry>
        </mxCell>
        <mxCell id="T1V7MtbhpMLcvmod6pS4-87" value="say: SHARINGCOMPLETE" style="html=1;verticalAlign=bottom;endArrow=block;curved=0;rounded=0;exitX=0;exitY=1;exitDx=0;exitDy=-5;exitPerimeter=0;fillColor=#008a00;strokeColor=#005700;" parent="1" source="T1V7MtbhpMLcvmod6pS4-85" target="T1V7MtbhpMLcvmod6pS4-42" edge="1">
          <mxGeometry width="80" relative="1" as="geometry">
            <mxPoint x="420" y="728.0000000000002" as="sourcePoint" />
            <mxPoint x="105" y="728.0000000000002" as="targetPoint" />
          </mxGeometry>
        </mxCell>
        <mxCell id="T1V7MtbhpMLcvmod6pS4-61" value="reply: DELIVERFORYOU_0" style="html=1;verticalAlign=bottom;endArrow=block;curved=0;rounded=0;fillColor=#008a00;strokeColor=#005700;" parent="1" source="T1V7MtbhpMLcvmod6pS4-44" target="T1V7MtbhpMLcvmod6pS4-42" edge="1">
          <mxGeometry width="80" relative="1" as="geometry">
            <mxPoint x="420" y="585" as="sourcePoint" />
            <mxPoint x="105" y="585" as="targetPoint" />
            <Array as="points">
              <mxPoint x="160" y="585" />
            </Array>
          </mxGeometry>
        </mxCell>
        <mxCell id="T1V7MtbhpMLcvmod6pS4-91" value="say: ICANTDELIVERFORYOU" style="html=1;verticalAlign=bottom;endArrow=block;curved=0;rounded=0;exitX=1;exitY=1;exitDx=0;exitDy=-5;exitPerimeter=0;entryX=0;entryY=1;entryDx=0;entryDy=-5;entryPerimeter=0;fillColor=#e51400;strokeColor=#B20000;" parent="1" source="T1V7MtbhpMLcvmod6pS4-89" target="T1V7MtbhpMLcvmod6pS4-90" edge="1">
          <mxGeometry width="80" relative="1" as="geometry">
            <mxPoint x="142" y="641" as="sourcePoint" />
            <mxPoint x="420" y="806" as="targetPoint" />
          </mxGeometry>
        </mxCell>
        <mxCell id="hJEKC8NUOF8t_96aRR02-1" value="&lt;font style=&quot;font-size: 9px;&quot;&gt;I&#39;m ready&lt;/font&gt;" style="text;html=1;align=center;verticalAlign=middle;resizable=0;points=[];autosize=1;strokeColor=none;fillColor=none;" vertex="1" parent="1">
          <mxGeometry x="30" y="600" width="60" height="30" as="geometry" />
        </mxCell>
        <mxCell id="T1V7MtbhpMLcvmod6pS4-63" value="say: ALIGNMENT_1" style="html=1;verticalAlign=bottom;endArrow=block;curved=0;rounded=0;fillColor=#008a00;strokeColor=#005700;" parent="1" source="T1V7MtbhpMLcvmod6pS4-42" edge="1">
          <mxGeometry width="80" relative="1" as="geometry">
            <mxPoint x="105" y="613" as="sourcePoint" />
            <mxPoint x="420" y="613" as="targetPoint" />
          </mxGeometry>
        </mxCell>
        <mxCell id="hJEKC8NUOF8t_96aRR02-2" value="say: ALIGNMENT_1" style="html=1;verticalAlign=bottom;endArrow=block;curved=0;rounded=0;fillColor=#008a00;strokeColor=#005700;exitX=1;exitY=0;exitDx=0;exitDy=5;exitPerimeter=0;" edge="1" parent="1" source="T1V7MtbhpMLcvmod6pS4-73" target="T1V7MtbhpMLcvmod6pS4-44">
          <mxGeometry width="80" relative="1" as="geometry">
            <mxPoint x="115" y="558" as="sourcePoint" />
            <mxPoint x="430" y="558" as="targetPoint" />
          </mxGeometry>
        </mxCell>
        <mxCell id="hJEKC8NUOF8t_96aRR02-5" value="say: ALIGNMENT_1" style="html=1;verticalAlign=bottom;endArrow=block;curved=0;rounded=0;fillColor=#008a00;strokeColor=#005700;entryX=1;entryY=1;entryDx=0;entryDy=-5;entryPerimeter=0;" edge="1" parent="1" source="T1V7MtbhpMLcvmod6pS4-44" target="T1V7MtbhpMLcvmod6pS4-73">
          <mxGeometry width="80" relative="1" as="geometry">
            <mxPoint x="130" y="630" as="sourcePoint" />
            <mxPoint x="440" y="630" as="targetPoint" />
          </mxGeometry>
        </mxCell>
        <mxCell id="T1V7MtbhpMLcvmod6pS4-94" value="say: PARCELSHARINGINTERRUPTED" style="html=1;verticalAlign=bottom;endArrow=block;curved=0;rounded=0;exitX=1;exitY=1;exitDx=0;exitDy=-5;exitPerimeter=0;entryX=0;entryY=1;entryDx=0;entryDy=-5;entryPerimeter=0;fillColor=#e51400;strokeColor=#B20000;" parent="1" source="T1V7MtbhpMLcvmod6pS4-93" target="T1V7MtbhpMLcvmod6pS4-95" edge="1">
          <mxGeometry width="80" relative="1" as="geometry">
            <mxPoint x="142" y="710" as="sourcePoint" />
            <mxPoint x="420" y="855" as="targetPoint" />
          </mxGeometry>
        </mxCell>
        <mxCell id="hJEKC8NUOF8t_96aRR02-23" value="&lt;font style=&quot;font-size: 11px;&quot;&gt;IF: Parcel sharing interrupted&lt;/font&gt;" style="shape=umlFrame;whiteSpace=wrap;html=1;pointerEvents=0;recursiveResize=0;container=1;collapsible=0;width=180;dashed=1;dashPattern=8 8;height=18;strokeWidth=1;" vertex="1" parent="1">
          <mxGeometry x="-50" y="842" width="630" height="48" as="geometry" />
        </mxCell>
        <mxCell id="T1V7MtbhpMLcvmod6pS4-95" value="" style="html=1;points=[[0,0,0,0,5],[0,1,0,0,-5],[1,0,0,0,5],[1,1,0,0,-5]];perimeter=orthogonalPerimeter;outlineConnect=0;targetShapes=umlLifeline;portConstraint=eastwest;newEdgeStyle={&quot;curved&quot;:0,&quot;rounded&quot;:0};" parent="hJEKC8NUOF8t_96aRR02-23" vertex="1">
          <mxGeometry x="470" y="8" width="10" height="30" as="geometry" />
        </mxCell>
      </root>
    </mxGraphModel>
  </diagram>
</mxfile>
